<svg xmlns="http://www.w3.org/2000/svg" viewBox="0 0 1200 800" role="img" aria-label="OneTigris DYNISLAND ダブルサイズマットのイラスト">
  <defs>
    <linearGradient id="bg" x1="0%" y1="0%" x2="100%" y2="100%">
      <stop offset="0%" stop-color="#0b3c5d"/>
      <stop offset="50%" stop-color="#155373"/>
      <stop offset="100%" stop-color="#1f6f84"/>
    </linearGradient>
    <linearGradient id="mat" x1="0%" y1="0%" x2="100%" y2="0%">
      <stop offset="0%" stop-color="#1c2024"/>
      <stop offset="100%" stop-color="#2d343a"/>
    </linearGradient>
  </defs>
  <rect width="1200" height="800" fill="url(#bg)"/>
  <circle cx="150" cy="140" r="120" fill="#ffc857" opacity="0.15"/>
  <circle cx="1080" cy="100" r="140" fill="#5bc0be" opacity="0.18"/>
  <path d="M80 620 Q 220 520 380 560 T 700 560 T 1100 500 L 1100 740 L 80 740 Z" fill="#0d1a24" opacity="0.45"/>
  <rect x="200" y="260" rx="26" ry="26" width="800" height="320" fill="url(#mat)" stroke="#5bc0be" stroke-width="6"/>
  <rect x="230" y="290" rx="18" ry="18" width="740" height="260" fill="#1f262d" opacity="0.9"/>
  <path d="M230 430 H970" stroke="#5bc0be" stroke-width="2" opacity="0.45"/>
  <path d="M230 470 H970" stroke="#5bc0be" stroke-width="2" opacity="0.35"/>
  <path d="M230 510 H970" stroke="#5bc0be" stroke-width="2" opacity="0.25"/>
  <g fill="#ffffff">
    <text x="240" y="340" font-family="'Segoe UI', 'Noto Sans JP', sans-serif" font-size="48" font-weight="700" letter-spacing="1">OneTigris DYNISLAND</text>
    <text x="240" y="400" font-family="'Segoe UI', 'Noto Sans JP', sans-serif" font-size="28" opacity="0.9">10cmフォーム×R値5.6のダブルサイズマット</text>
  </g>
  <g fill="#e8f5ff" font-family="'Segoe UI', 'Noto Sans JP', sans-serif" font-size="22">
    <text x="240" y="460">セルフインフレ＋内蔵ポンプで約60秒</text>
    <text x="240" y="495">2人で沈みにくいベッド級の寝心地</text>
    <text x="240" y="530">冬キャンプも安心の高い断熱性</text>
  </g>
  <path d="M820 325 h180" stroke="#5bc0be" stroke-width="6" stroke-linecap="round" opacity="0.6"/>
  <path d="M820 365 h160" stroke="#ffc857" stroke-width="6" stroke-linecap="round" opacity="0.6"/>
  <path d="M820 405 h140" stroke="#e9724c" stroke-width="6" stroke-linecap="round" opacity="0.6"/>
</svg>
