<svg xmlns="http://www.w3.org/2000/svg" viewBox="0 0 64 64">
  <defs>
    <linearGradient id="bg" x1="0" y1="0" x2="1" y2="1">
      <stop offset="0%" stop-color="#0f172a"/>
      <stop offset="100%" stop-color="#022c22"/>
    </linearGradient>
  </defs>

  <rect width="64" height="64" rx="16" fill="url(#bg)"/>

  <circle cx="48" cy="16" r="6" fill="#fde68a"/>

  <path d="M8 44 L24 20 L34 32 L44 20 L56 44 Z" fill="#0f766e"/>
  <path d="M24 20 L30 28 L26 30 Z" fill="#e5e7eb"/>
  <path d="M44 20 L50 28 L46 30 Z" fill="#e5e7eb"/>

  <path d="M18 40 C16 36, 18 32, 16 28" stroke="#f97316" stroke-width="2.5" fill="none" stroke-linecap="round"/>
  <path d="M24 40 C22 36, 24 32, 22 28" stroke="#fb923c" stroke-width="2.5" fill="none" stroke-linecap="round"/>
  <path d="M30 40 C28 36, 30 32, 28 28" stroke="#fed7aa" stroke-width="2.5" fill="none" stroke-linecap="round"/>

  <path d="M30 46 L40 30 L50 46 Z" fill="#f97316"/>
  <path d="M40 30 L40 46" stroke="#7c2d12" stroke-width="2"/>
  <circle cx="42" cy="42" r="1.4" fill="#fecaca"/>
</svg>
